<?xml version="1.0" encoding="utf-8"?>
<!-- Generator: Adobe Illustrator 21.0.0, SVG Export Plug-In . SVG Version: 6.00 Build 0)  -->
<svg version="1.1" id="Layer_1" xmlns="http://www.w3.org/2000/svg" xmlns:xlink="http://www.w3.org/1999/xlink" x="0px" y="0px"
	 viewBox="0 0 100 100" style="enable-background:new 0 0 100 100;" xml:space="preserve">
<style type="text/css">
	.st0{fill:#B1B0B6;}
</style>
<circle class="st0" cx="7326.8" cy="542.7" r="6.1"/>
<circle class="st0" cx="7326.8" cy="591.5" r="6.1"/>
<circle class="st0" cx="7326.8" cy="614" r="5.9"/>
<circle class="st0" cx="7293.6" cy="600.3" r="0"/>
<circle class="st0" cx="7373.7" cy="567.1" r="5.9"/>
<circle class="st0" cx="7279.8" cy="567.1" r="5.9"/>
<circle class="st0" cx="7360" cy="600.3" r="0"/>
<circle class="st0" cx="7293.6" cy="533.8" r="0"/>
<circle class="st0" cx="7326.8" cy="520.1" r="5.9"/>
<circle class="st0" cx="7326.8" cy="493.8" r="6.1"/>
<circle class="st0" cx="7326.8" cy="640.3" r="6.1"/>
<circle class="st0" cx="7381.5" cy="512.3" r="0"/>
<circle class="st0" cx="7272" cy="621.8" r="0"/>
<circle class="st0" cx="7400" cy="567.1" r="6.1"/>
<circle class="st0" cx="7253.6" cy="567" r="6.1"/>
<circle class="st0" cx="7381.5" cy="621.8" r="0"/>
<circle class="st0" cx="7272" cy="512.3" r="0"/>
<circle class="st0" cx="7360" cy="533.8" r="0"/>
<circle class="st0" cx="7350.2" cy="513.2" r="0"/>
<circle class="st0" cx="7303.3" cy="620.9" r="0"/>
<circle class="st0" cx="7381.5" cy="545.5" r="0"/>
<circle class="st0" cx="7272.1" cy="588.6" r="0"/>
<circle class="st0" cx="7380.7" cy="590.5" r="0"/>
<circle class="st0" cx="7272.9" cy="543.6" r="0"/>
<circle class="st0" cx="7348.3" cy="621.8" r="0"/>
<circle class="st0" cx="7305.3" cy="512.4" r="0"/>
<circle class="st0" cx="7351.2" cy="567.1" r="6.1"/>
<circle class="st0" cx="7302.4" cy="567.1" r="6.1"/>
<circle class="st0" cx="7346.2" cy="547.7" r="0"/>
<circle class="st0" cx="7307.4" cy="586.5" r="0"/>
<circle class="st0" cx="7307.4" cy="547.7" r="0"/>
<circle class="st0" cx="7346.2" cy="586.4" r="0"/>
<circle class="st0" cx="7326.8" cy="567.1" r="6.1"/>
<circle class="st0" cx="50" cy="34.6" r="3.8"/>
<circle class="st0" cx="50" cy="65.4" r="3.8"/>
<circle class="st0" cx="50" cy="79.6" r="3.7"/>
<ellipse transform="matrix(0.7071 -0.7071 0.7071 0.7071 -41.6451 41.3272)" class="st0" cx="29.1" cy="70.9" rx="3.7" ry="3.7"/>
<circle class="st0" cx="79.6" cy="50" r="3.7"/>
<circle class="st0" cx="20.4" cy="50" r="3.7"/>
<ellipse transform="matrix(0.7071 -0.7071 0.7071 0.7071 -29.3826 70.9325)" class="st0" cx="70.9" cy="70.9" rx="3.7" ry="3.7"/>
<ellipse transform="matrix(0.7071 -0.7071 0.7071 0.7071 -12.0393 29.0635)" class="st0" cx="29.1" cy="29.1" rx="3.7" ry="3.7"/>
<circle class="st0" cx="50" cy="20.4" r="3.7"/>
<circle class="st0" cx="50" cy="3.8" r="3.8"/>
<circle class="st0" cx="50" cy="96.2" r="3.8"/>
<ellipse transform="matrix(0.7071 -0.7071 0.7071 0.7071 13.8049 64.2965)" class="st0" cx="84.5" cy="15.5" rx="4.1" ry="4.1"/>
<ellipse transform="matrix(0.7071 -0.7071 0.7071 0.7071 -55.2275 35.7026)" class="st0" cx="15.5" cy="84.5" rx="4.1" ry="4.1"/>
<circle class="st0" cx="96.2" cy="50" r="3.8"/>
<circle class="st0" cx="3.8" cy="50" r="3.8"/>
<ellipse transform="matrix(0.7071 -0.7071 0.7071 0.7071 -35.0077 84.5093)" class="st0" cx="84.5" cy="84.5" rx="4.1" ry="4.1"/>
<ellipse transform="matrix(0.7071 -0.7071 0.7071 0.7071 -6.4065 15.4836)" class="st0" cx="15.5" cy="15.5" rx="4.1" ry="4.1"/>
<ellipse transform="matrix(0.7071 -0.7071 0.7071 0.7071 0.2235 58.6702)" class="st0" cx="70.9" cy="29.1" rx="3.7" ry="3.7"/>
<ellipse transform="matrix(0.3991 -0.9169 0.9169 0.3991 24.2386 69.0326)" class="st0" cx="64.8" cy="16" rx="4.6" ry="4.6"/>
<ellipse transform="matrix(0.3991 -0.9169 0.9169 0.3991 -55.8435 82.7393)" class="st0" cx="35.2" cy="84" rx="4.6" ry="4.6"/>
<ellipse transform="matrix(0.9306 -0.3661 0.3661 0.9306 -7.473 33.4579)" class="st0" cx="84.5" cy="36.4" rx="4.6" ry="4.6"/>
<ellipse transform="matrix(0.9306 -0.3661 0.3661 0.9306 -22.1939 10.0924)" class="st0" cx="15.5" cy="63.6" rx="4.6" ry="4.6"/>
<ellipse transform="matrix(0.3992 -0.9169 0.9169 0.3992 -8.9498 115.9259)" class="st0" cx="84" cy="64.8" rx="4.6" ry="4.6"/>
<ellipse transform="matrix(0.3992 -0.9169 0.9169 0.3992 -22.6565 35.8447)" class="st0" cx="16" cy="35.2" rx="4.6" ry="4.6"/>
<ellipse transform="matrix(0.9306 -0.3661 0.3661 0.9306 -26.516 29.1351)" class="st0" cx="63.6" cy="84.5" rx="4.6" ry="4.6"/>
<ellipse transform="matrix(0.9306 -0.3661 0.3661 0.9306 -3.1505 14.4142)" class="st0" cx="36.4" cy="15.5" rx="4.6" ry="4.6"/>
<circle class="st0" cx="65.4" cy="50" r="3.8"/>
<circle class="st0" cx="34.6" cy="50" r="3.8"/>
<ellipse transform="matrix(0.7071 -0.7071 0.7071 0.7071 -8.4795 55.066)" class="st0" cx="62.2" cy="37.8" rx="4.3" ry="4.3"/>
<ellipse transform="matrix(0.7071 -0.7071 0.7071 0.7071 -32.9426 44.933)" class="st0" cx="37.8" cy="62.2" rx="4.3" ry="4.3"/>
<ellipse transform="matrix(0.7072 -0.707 0.707 0.7072 -15.6446 37.7588)" class="st0" cx="37.8" cy="37.8" rx="4.3" ry="4.3"/>
<ellipse transform="matrix(0.7072 -0.707 0.707 0.7072 -25.7689 62.2142)" class="st0" cx="62.2" cy="62.2" rx="4.3" ry="4.3"/>
<circle class="st0" cx="50" cy="50" r="3.8"/>
</svg>
