
<svg id="Layer_1" data-name="Layer 1" xmlns="http://www.w3.org/2000/svg" viewBox="0 0 100 100">
  <defs>
    <style>.cls-1{fill:#b1b0b6;}.cls-2{fill:#050505;}
    </style>
  </defs>
    <g class="VR">
      <circle class="cls-1" cx="21.76" cy="8.33" r="8.33"/>
      <path class="cls-1" d="M64,19.83H36.4a7.4,7.4,0,0,0-7.33,7.33V56.83a3.67,3.67,0,0,0,7.33,0V30.33H39v65a4.67,4.67,0,1,0,9.33,0V60.5h3.28V95.33A4.66,4.66,0,0,0,56.33,100,4.77,4.77,0,0,0,61,95.33v-65h2.64v26.5a3.67,3.67,0,0,0,7.33,0V27.17A6.92,6.92,0,0,0,64,19.83Z" transform="translate(-29.07)"/>
    </g>
    <g class="VR">
      <circle class="cls-2" cx="21.76" cy="8.33" r="8.33"/>
      <path class="cls-2" d="M64,19.83H36.4a7.4,7.4,0,0,0-7.33,7.33V56.83a3.67,3.67,0,0,0,7.33,0V30.33H39v65a4.67,4.67,0,1,0,9.33,0V60.5h3.28V95.33A4.66,4.66,0,0,0,56.33,100,4.77,4.77,0,0,0,61,95.33v-65h2.64v26.5a3.67,3.67,0,0,0,7.33,0V27.17A6.92,6.92,0,0,0,64,19.83Z" transform="translate(-29.07)"/>
    </g>
    <g class="VR">
      <circle class="cls-1" cx="21.76" cy="8.33" r="8.33"/>
      <path class="cls-1" d="M64,19.83H36.4a7.4,7.4,0,0,0-7.33,7.33V56.83a3.67,3.67,0,0,0,7.33,0V30.33H39v65a4.67,4.67,0,1,0,9.33,0V60.5h3.28V95.33A4.66,4.66,0,0,0,56.33,100,4.77,4.77,0,0,0,61,95.33v-65h2.64v26.5a3.67,3.67,0,0,0,7.33,0V27.17A6.92,6.92,0,0,0,64,19.83Z" transform="translate(-29.07)"/>
    </g>
    <g class="VR">
      <circle class="cls-2" cx="21.76" cy="8.33" r="8.33"/>
      <path class="cls-2" d="M64,19.83H36.4a7.4,7.4,0,0,0-7.33,7.33V56.83a3.67,3.67,0,0,0,7.33,0V30.33H39v65a4.67,4.67,0,1,0,9.33,0V60.5h3.28V95.33A4.66,4.66,0,0,0,56.33,100,4.77,4.77,0,0,0,61,95.33v-65h2.64v26.5a3.67,3.67,0,0,0,7.33,0V27.17A6.92,6.92,0,0,0,64,19.83Z" transform="translate(-29.07)"/>
    </g>
    <g class="VR">
      <circle class="cls-1" cx="21.76" cy="8.33" r="8.33"/>
      <path class="cls-1" d="M64,19.83H36.4a7.4,7.4,0,0,0-7.33,7.33V56.83a3.67,3.67,0,0,0,7.33,0V30.33H39v65a4.67,4.67,0,1,0,9.33,0V60.5h3.28V95.33A4.66,4.66,0,0,0,56.33,100,4.77,4.77,0,0,0,61,95.33v-65h2.64v26.5a3.67,3.67,0,0,0,7.33,0V27.17A6.92,6.92,0,0,0,64,19.83Z" transform="translate(-29.07)"/>
    </g>
</svg>